<?xml version="1.0" encoding="UTF-8" standalone="no"?>
<svg width="927px" height="82px" viewBox="0 0 927 82" version="1.1" xmlns="http://www.w3.org/2000/svg" xmlns:xlink="http://www.w3.org/1999/xlink" xmlns:sketch="http://www.bohemiancoding.com/sketch/ns">
    <!-- Generator: Sketch 3.4.3 (16044) - http://www.bohemiancoding.com/sketch -->
    <title>Artboard 1</title>
    <desc>Created with Sketch.</desc>
    <defs></defs>
    <g id="Page-2" stroke="none" stroke-width="1" fill="none" fill-rule="evenodd" sketch:type="MSPage">
        <g id="Artboard-1" sketch:type="MSArtboardGroup">
            <path d="M142.52349,-26.8456863 L219.038909,41.3404856 L219.038909,1.00631988e-06 L325.426398,31.1163188 L379.611838,-64.5937347 L142.52349,-26.8456863 Z" id="Path-24" fill="#B03030" sketch:type="MSShapeGroup"></path>
            <path d="M-22.7878444,-22.7197574 L26.4137475,25.2568802 L126.98824,13.5070484 L136.376608,26.9240562 L146.543286,7.01523307 L258.86761,-59.3489849 L-22.7878444,-22.7197574 Z" id="Path-18" fill="#E36363" sketch:type="MSShapeGroup"></path>
            <path d="M101.259779,-67.667176 L74.9608512,5.33479043 L85.6272398,18.6545095 L185.4588,38.2714663 L232.506772,11.9725389 L506.007657,35.9586466 L615.57694,-56.748721 L101.259779,-67.667176 Z" id="Path-19" fill="#DD3D3D" sketch:type="MSShapeGroup"></path>
            <path d="M526.430036,-73.7079251 L552.587453,13.9360035 L565.756817,6.51110028 L644.260022,26.0794127 L675.326099,7.78912114 L730.329641,40.7700192 L848.411692,-40.1875165 L526.430036,-73.7079251 Z" id="Path-20" fill="#E36363" sketch:type="MSShapeGroup"></path>
            <path d="M303.169385,-60.9321387 L344.760341,21.9932837 L422.631168,27.936744 L403.651011,10.8758289 L480.438396,5.27287938 L516.912845,-48.8992849 L303.169385,-60.9321387 Z" id="Path-21" fill="#B03030" sketch:type="MSShapeGroup"></path>
            <path d="M686.668508,-37.7818302 L723.094314,19.1409534 L787.835578,3.90199196 L837.337881,59.5025325 L866.736783,42.6892616 L934.193288,76.8995362 L934.144644,-77.2014769 L686.668508,-37.7818302 Z" id="Path-22" fill="#B03030" sketch:type="MSShapeGroup"></path>
            <path d="M827.569202,-15.0018301 L837.351147,59.6673123 L867.094982,44.0303512 L927.210607,76.0870058 L933.016979,45.2597277 L827.569202,-15.0018301 Z" id="Path-23" fill="#E88282" sketch:type="MSShapeGroup"></path>
        </g>
    </g>
</svg>
